<mxfile host="Electron" agent="Mozilla/5.0 (Windows NT 10.0; Win64; x64) AppleWebKit/537.36 (KHTML, like Gecko) draw.io/24.7.17 Chrome/128.0.6613.36 Electron/32.0.1 Safari/537.36" version="24.7.17">
  <diagram name="第 1 页" id="P6k6-vYkmf5tMaHhiHBC">
    <mxGraphModel dx="1635" dy="740" grid="0" gridSize="10" guides="1" tooltips="1" connect="1" arrows="1" fold="1" page="0" pageScale="1" pageWidth="1169" pageHeight="827" math="0" shadow="0">
      <root>
        <mxCell id="0" />
        <mxCell id="1" parent="0" />
        <mxCell id="PTFSl1G5xjVb4g3fgbiP-36" value="" style="rounded=0;whiteSpace=wrap;html=1;fillColor=#f5f5f5;fontColor=#333333;strokeColor=#666666;" vertex="1" parent="1">
          <mxGeometry x="20" y="190" width="710" height="440" as="geometry" />
        </mxCell>
        <mxCell id="PTFSl1G5xjVb4g3fgbiP-2" value="" style="shape=curlyBracket;whiteSpace=wrap;html=1;rounded=1;labelPosition=left;verticalLabelPosition=middle;align=right;verticalAlign=middle;" vertex="1" parent="1">
          <mxGeometry x="350" y="223" width="20" height="120" as="geometry" />
        </mxCell>
        <mxCell id="PTFSl1G5xjVb4g3fgbiP-3" value="&lt;p style=&quot;margin: 0px; padding: 0px; border: 0px; font-size: 15px; vertical-align: baseline; line-height: 27px; color: rgb(26, 32, 41); font-family: -apple-system, BlinkMacSystemFont, &amp;quot;Segoe UI&amp;quot;, &amp;quot;Noto Sans&amp;quot;, Helvetica, Arial, sans-serif, &amp;quot;Apple Color Emoji&amp;quot;, &amp;quot;Segoe UI Emoji&amp;quot;; text-align: left; text-wrap: wrap; background-color: rgb(255, 255, 255);&quot;&gt;&lt;br&gt;&lt;/p&gt;" style="text;html=1;align=center;verticalAlign=middle;resizable=0;points=[];autosize=1;strokeColor=none;fillColor=none;" vertex="1" parent="1">
          <mxGeometry x="440" y="218" width="20" height="40" as="geometry" />
        </mxCell>
        <mxCell id="PTFSl1G5xjVb4g3fgbiP-4" value="&lt;div&gt;JavaScript Runtime Environment: Node.js v22.14.0&lt;/div&gt;&lt;div&gt;&lt;br&gt;&lt;/div&gt;" style="text;html=1;align=center;verticalAlign=middle;resizable=0;points=[];autosize=1;strokeColor=none;fillColor=none;" vertex="1" parent="1">
          <mxGeometry x="375" y="288" width="290" height="40" as="geometry" />
        </mxCell>
        <mxCell id="PTFSl1G5xjVb4g3fgbiP-5" value="Vue@vue/cli 5.0.8" style="text;html=1;align=center;verticalAlign=middle;resizable=0;points=[];autosize=1;strokeColor=none;fillColor=none;" vertex="1" parent="1">
          <mxGeometry x="375" y="313" width="120" height="30" as="geometry" />
        </mxCell>
        <mxCell id="PTFSl1G5xjVb4g3fgbiP-8" value="&lt;b&gt;Use&lt;/b&gt;" style="endArrow=open;endSize=12;dashed=1;html=1;rounded=0;" edge="1" parent="1">
          <mxGeometry width="160" relative="1" as="geometry">
            <mxPoint x="240" y="282.65999999999997" as="sourcePoint" />
            <mxPoint x="350" y="283" as="targetPoint" />
          </mxGeometry>
        </mxCell>
        <mxCell id="PTFSl1G5xjVb4g3fgbiP-9" value="&lt;span style=&quot;text-wrap: nowrap;&quot;&gt;&lt;font style=&quot;font-size: 16px;&quot;&gt;&lt;b&gt;Frontend&lt;/b&gt;&lt;/font&gt;&lt;/span&gt;" style="rounded=0;whiteSpace=wrap;html=1;fillColor=#dae8fc;strokeColor=#6c8ebf;" vertex="1" parent="1">
          <mxGeometry x="120" y="253" width="120" height="60" as="geometry" />
        </mxCell>
        <mxCell id="PTFSl1G5xjVb4g3fgbiP-10" value="Editor: Vscode" style="text;html=1;align=center;verticalAlign=middle;resizable=0;points=[];autosize=1;strokeColor=none;fillColor=none;" vertex="1" parent="1">
          <mxGeometry x="375" y="223" width="100" height="30" as="geometry" />
        </mxCell>
        <mxCell id="PTFSl1G5xjVb4g3fgbiP-11" value="&lt;span style=&quot;text-wrap: nowrap;&quot;&gt;&lt;font style=&quot;font-size: 16px;&quot;&gt;&lt;b&gt;Backend&lt;/b&gt;&lt;/font&gt;&lt;/span&gt;" style="rounded=0;whiteSpace=wrap;html=1;fillColor=#d5e8d4;strokeColor=#82b366;" vertex="1" parent="1">
          <mxGeometry x="120" y="390" width="120" height="60" as="geometry" />
        </mxCell>
        <mxCell id="PTFSl1G5xjVb4g3fgbiP-12" value="&lt;b&gt;Use&lt;/b&gt;" style="endArrow=open;endSize=12;dashed=1;html=1;rounded=0;" edge="1" parent="1">
          <mxGeometry width="160" relative="1" as="geometry">
            <mxPoint x="240" y="419.65999999999997" as="sourcePoint" />
            <mxPoint x="350" y="420" as="targetPoint" />
          </mxGeometry>
        </mxCell>
        <mxCell id="PTFSl1G5xjVb4g3fgbiP-13" value="" style="shape=curlyBracket;whiteSpace=wrap;html=1;rounded=1;labelPosition=left;verticalLabelPosition=middle;align=right;verticalAlign=middle;" vertex="1" parent="1">
          <mxGeometry x="345" y="360" width="20" height="120" as="geometry" />
        </mxCell>
        <mxCell id="PTFSl1G5xjVb4g3fgbiP-14" value="&lt;div&gt;Compiler: IDEA&lt;/div&gt;" style="text;html=1;align=center;verticalAlign=middle;resizable=0;points=[];autosize=1;strokeColor=none;fillColor=none;" vertex="1" parent="1">
          <mxGeometry x="365" y="360" width="110" height="30" as="geometry" />
        </mxCell>
        <mxCell id="PTFSl1G5xjVb4g3fgbiP-16" value="&lt;div&gt;Core library &lt;br&gt;environment&lt;/div&gt;" style="text;html=1;align=center;verticalAlign=middle;resizable=0;points=[];autosize=1;strokeColor=none;fillColor=none;" vertex="1" parent="1">
          <mxGeometry x="370" y="425" width="90" height="40" as="geometry" />
        </mxCell>
        <mxCell id="PTFSl1G5xjVb4g3fgbiP-17" value="" style="shape=curlyBracket;whiteSpace=wrap;html=1;rounded=1;labelPosition=left;verticalLabelPosition=middle;align=right;verticalAlign=middle;" vertex="1" parent="1">
          <mxGeometry x="455" y="385" width="20" height="120" as="geometry" />
        </mxCell>
        <mxCell id="PTFSl1G5xjVb4g3fgbiP-18" value="&lt;div&gt;springboot 3.0.2&lt;/div&gt;" style="text;html=1;align=center;verticalAlign=middle;resizable=0;points=[];autosize=1;strokeColor=none;fillColor=none;" vertex="1" parent="1">
          <mxGeometry x="475" y="380" width="110" height="30" as="geometry" />
        </mxCell>
        <mxCell id="PTFSl1G5xjVb4g3fgbiP-19" value="mybatis-plus 3.5.3.2" style="text;whiteSpace=wrap;" vertex="1" parent="1">
          <mxGeometry x="485" y="410" width="140" height="40" as="geometry" />
        </mxCell>
        <mxCell id="PTFSl1G5xjVb4g3fgbiP-20" value="spring-security 6.0.1" style="text;whiteSpace=wrap;" vertex="1" parent="1">
          <mxGeometry x="485" y="440" width="140" height="40" as="geometry" />
        </mxCell>
        <mxCell id="PTFSl1G5xjVb4g3fgbiP-21" value="fastjson 1.2.76" style="text;whiteSpace=wrap;" vertex="1" parent="1">
          <mxGeometry x="485" y="465" width="110" height="40" as="geometry" />
        </mxCell>
        <mxCell id="PTFSl1G5xjVb4g3fgbiP-22" value="&lt;span style=&quot;text-wrap: nowrap;&quot;&gt;&lt;font style=&quot;font-size: 16px;&quot;&gt;&lt;b&gt;DataBase&lt;/b&gt;&lt;/font&gt;&lt;/span&gt;" style="rounded=0;whiteSpace=wrap;html=1;fillColor=#ffe6cc;strokeColor=#d79b00;" vertex="1" parent="1">
          <mxGeometry x="120" y="530" width="120" height="60" as="geometry" />
        </mxCell>
        <mxCell id="PTFSl1G5xjVb4g3fgbiP-23" value="&lt;b&gt;Use&lt;/b&gt;" style="endArrow=open;endSize=12;dashed=1;html=1;rounded=0;" edge="1" parent="1">
          <mxGeometry width="160" relative="1" as="geometry">
            <mxPoint x="240" y="564.66" as="sourcePoint" />
            <mxPoint x="350" y="565" as="targetPoint" />
          </mxGeometry>
        </mxCell>
        <mxCell id="PTFSl1G5xjVb4g3fgbiP-24" value="" style="shape=curlyBracket;whiteSpace=wrap;html=1;rounded=1;labelPosition=left;verticalLabelPosition=middle;align=right;verticalAlign=middle;" vertex="1" parent="1">
          <mxGeometry x="345" y="505" width="20" height="120" as="geometry" />
        </mxCell>
        <mxCell id="PTFSl1G5xjVb4g3fgbiP-25" value="MySql 8.0.40-0ubuntu0.22.04.1 for Linux on x86_64 ((Ubuntu))" style="text;whiteSpace=wrap;" vertex="1" parent="1">
          <mxGeometry x="370" y="520" width="370" height="40" as="geometry" />
        </mxCell>
        <mxCell id="PTFSl1G5xjVb4g3fgbiP-26" value="redis-cli redis-cli 6.0.16redoc 2.4.0" style="text;whiteSpace=wrap;" vertex="1" parent="1">
          <mxGeometry x="375" y="580" width="220" height="40" as="geometry" />
        </mxCell>
        <mxCell id="PTFSl1G5xjVb4g3fgbiP-27" value="&lt;span style=&quot;text-wrap: nowrap;&quot;&gt;&lt;font style=&quot;font-size: 16px;&quot;&gt;&lt;b&gt;Others&lt;/b&gt;&lt;/font&gt;&lt;/span&gt;" style="rounded=0;whiteSpace=wrap;html=1;fillColor=#fff2cc;strokeColor=#d6b656;" vertex="1" parent="1">
          <mxGeometry x="120" y="660" width="120" height="60" as="geometry" />
        </mxCell>
        <mxCell id="PTFSl1G5xjVb4g3fgbiP-28" value="&lt;b&gt;Use&lt;/b&gt;" style="endArrow=open;endSize=12;dashed=1;html=1;rounded=0;" edge="1" parent="1">
          <mxGeometry width="160" relative="1" as="geometry">
            <mxPoint x="240" y="689.66" as="sourcePoint" />
            <mxPoint x="350" y="690" as="targetPoint" />
          </mxGeometry>
        </mxCell>
        <mxCell id="PTFSl1G5xjVb4g3fgbiP-29" value="" style="shape=curlyBracket;whiteSpace=wrap;html=1;rounded=1;labelPosition=left;verticalLabelPosition=middle;align=right;verticalAlign=middle;" vertex="1" parent="1">
          <mxGeometry x="345" y="630" width="20" height="120" as="geometry" />
        </mxCell>
        <mxCell id="PTFSl1G5xjVb4g3fgbiP-30" value="&lt;div&gt;API testing tool: Postman&lt;/div&gt;" style="text;html=1;align=center;verticalAlign=middle;resizable=0;points=[];autosize=1;strokeColor=none;fillColor=none;" vertex="1" parent="1">
          <mxGeometry x="360" y="630" width="160" height="30" as="geometry" />
        </mxCell>
        <mxCell id="PTFSl1G5xjVb4g3fgbiP-31" value="&lt;div&gt;API documentation: Redoc&lt;/div&gt;" style="text;html=1;align=center;verticalAlign=middle;resizable=0;points=[];autosize=1;strokeColor=none;fillColor=none;" vertex="1" parent="1">
          <mxGeometry x="360" y="670" width="170" height="30" as="geometry" />
        </mxCell>
        <mxCell id="PTFSl1G5xjVb4g3fgbiP-32" value="&lt;div&gt;Version control: Git&lt;/div&gt;" style="text;html=1;align=center;verticalAlign=middle;resizable=0;points=[];autosize=1;strokeColor=none;fillColor=none;" vertex="1" parent="1">
          <mxGeometry x="365" y="710" width="120" height="30" as="geometry" />
        </mxCell>
        <mxCell id="PTFSl1G5xjVb4g3fgbiP-33" value="Package Manager: pnpm 9.132.2" style="text;whiteSpace=wrap;" vertex="1" parent="1">
          <mxGeometry x="385" y="258" width="210" height="22" as="geometry" />
        </mxCell>
        <mxCell id="PTFSl1G5xjVb4g3fgbiP-39" value="" style="ellipse;shape=cloud;whiteSpace=wrap;html=1;" vertex="1" parent="1">
          <mxGeometry x="-370" y="288" width="330" height="220" as="geometry" />
        </mxCell>
        <mxCell id="PTFSl1G5xjVb4g3fgbiP-40" value="" style="endArrow=classic;html=1;rounded=0;entryX=0.921;entryY=0.559;entryDx=0;entryDy=0;entryPerimeter=0;exitX=0;exitY=0.5;exitDx=0;exitDy=0;" edge="1" parent="1" source="PTFSl1G5xjVb4g3fgbiP-36" target="PTFSl1G5xjVb4g3fgbiP-39">
          <mxGeometry width="50" height="50" relative="1" as="geometry">
            <mxPoint x="210" y="480" as="sourcePoint" />
            <mxPoint x="260" y="430" as="targetPoint" />
          </mxGeometry>
        </mxCell>
        <mxCell id="PTFSl1G5xjVb4g3fgbiP-42" value="&lt;div style=&quot;font-size: 16px;&quot;&gt;&lt;font style=&quot;font-size: 16px;&quot;&gt;&lt;b&gt;Remote Storage&lt;/b&gt;&lt;/font&gt;&lt;/div&gt;&lt;div style=&quot;font-size: 16px;&quot;&gt;&lt;br&gt;&lt;/div&gt;" style="text;html=1;align=center;verticalAlign=middle;resizable=0;points=[];autosize=1;strokeColor=none;fillColor=none;" vertex="1" parent="1">
          <mxGeometry x="-170" y="503" width="150" height="50" as="geometry" />
        </mxCell>
        <mxCell id="PTFSl1G5xjVb4g3fgbiP-44" value="" style="sketch=0;points=[[0,0,0],[0.25,0,0],[0.5,0,0],[0.75,0,0],[1,0,0],[0,1,0],[0.25,1,0],[0.5,1,0],[0.75,1,0],[1,1,0],[0,0.25,0],[0,0.5,0],[0,0.75,0],[1,0.25,0],[1,0.5,0],[1,0.75,0]];outlineConnect=0;fontColor=#232F3E;fillColor=#ED7100;strokeColor=#ffffff;dashed=0;verticalLabelPosition=bottom;verticalAlign=top;align=center;html=1;fontSize=12;fontStyle=0;aspect=fixed;shape=mxgraph.aws4.resourceIcon;resIcon=mxgraph.aws4.serverless_application_repository;" vertex="1" parent="1">
          <mxGeometry x="-248" y="362" width="78" height="78" as="geometry" />
        </mxCell>
      </root>
    </mxGraphModel>
  </diagram>
</mxfile>
